<svg xmlns="http://www.w3.org/2000/svg" viewBox="0 0 64 64" role="img" stroke-linecap="round" stroke-linejoin="round"><title>Komik</title><path d="M32.0 1.0 L35.6 3.8 L39.9 2.1 L42.6 5.8 L47.1 5.4 L48.7 9.7 L53.2 10.7 L53.5 15.2 L57.5 17.4 L56.5 21.8 L59.7 25.0 L57.5 29.0 L59.7 33.0 L56.5 36.2 L57.5 40.6 L53.5 42.8 L53.2 47.3 L48.7 48.3 L47.1 52.6 L42.6 52.2 L39.9 55.9 L35.6 54.2 L32.0 57.0 L28.4 54.2 L24.1 55.9 L21.4 52.2 L16.9 52.6 L15.3 48.3 L10.8 47.3 L10.5 42.8 L6.5 40.6 L7.5 36.2 L4.3 33.0 L6.5 29.0 L4.3 25.0 L7.5 21.8 L6.5 17.4 L10.5 15.2 L10.8 10.7 L15.3 9.7 L16.9 5.4 L21.4 5.8 L24.1 2.1 L28.4 3.8 Z" fill="#FF9F43" stroke="#FF9F43" stroke-width="3"/><path d="M22 46 L15 61 L36 50 Z" fill="#FF9F43"/><rect x="11" y="13" width="42" height="32" rx="13" fill="#FFC93C"/><path d="M20 24 H44" fill="none" stroke="#1F2A44" stroke-width="3"/><path d="M20 31 H44" fill="none" stroke="#1F2A44" stroke-width="3"/><path d="M20 38 H34" fill="none" stroke="#1F2A44" stroke-width="3"/><path d="M9 24 Q10 19 14 16" fill="none" stroke="#FFFFFF" stroke-width="2.5"/></svg>
